# xmcd
#
# Track frame offsets: 
#        150
#        12055
#        30348
#        43193
#        59723
#        76538
#        90727
#        106615
#        124885
#        139956
#        155856
#        170850
#        189061
#        207944
#
# Disc length: 2975 seconds
#
# Revision: 3
# Processed by: cddbd v1.5.2PL0 Copyright (c) Steve Scherf et al.
# Submitted via: ExactAudioCopy v0.99pb4
#
DISCID=b50b9d0e
DTITLE=Atayde and Alexandre - Estrada De Amor
DYEAR=2001
DGENRE=Sertanejo
TTITLE0=Estrada De Amor
TTITLE1=Sua Agência
TTITLE2=Abandono Ou Traição
TTITLE3=Morro
TTITLE4=Eu Vim De Lá
TTITLE5=Dança Do Chapéu
TTITLE6=Não Adianta Dizer Não
TTITLE7=Pelo Interfone
TTITLE8=Ame Você Eu Não Sei
TTITLE9=Vento Da Manhã
TTITLE10=Coração De Vidro
TTITLE11=Choro
TTITLE12=Passa
TTITLE13=Seja Feliz
EXTD=
EXTT0=
EXTT1=
EXTT2=
EXTT3=
EXTT4=
EXTT5=
EXTT6=
EXTT7=
EXTT8=
EXTT9=
EXTT10=
EXTT11=
EXTT12=
EXTT13=
PLAYORDER=
